<svg width="66" height="66" viewBox="0 0 66 66" fill="none" xmlns="http://www.w3.org/2000/svg">
<circle cx="33" cy="33" r="33" fill="#2A87FF"/>
<path d="M42.1667 32.1667H33.8333V23.8333C33.8333 23.3733 33.46 23 33 23C32.54 23 32.1667 23.3733 32.1667 23.8333V32.1667H23.8333C23.3733 32.1667 23 32.54 23 33C23 33.46 23.3733 33.8333 23.8333 33.8333H32.1667V42.1667C32.1667 42.6267 32.54 43 33 43C33.46 43 33.8333 42.6267 33.8333 42.1667V33.8333H42.1667C42.6267 33.8333 43 33.46 43 33C43 32.54 42.6267 32.1667 42.1667 32.1667Z" fill="white" stroke="white" stroke-width="0.5"/>
</svg>
