<svg width="18" height="18" viewBox="0 0 18 18" fill="none" xmlns="http://www.w3.org/2000/svg">
<path fill-rule="evenodd" clip-rule="evenodd" d="M16.9126 16.4886L12.2509 11.8205C13.4399 10.6723 14.1765 9.08942 14.1765 7.34369C14.1765 3.8456 11.2212 1 7.58827 1C3.95531 1 1 3.8456 1 7.34369C1 10.8418 3.95531 13.6874 7.58827 13.6874C9.18295 13.6874 10.6465 13.1385 11.7872 12.2277L16.4602 16.9073C16.5217 16.9692 16.6039 17 16.6864 17C16.7648 17 16.8429 16.9719 16.9038 16.9157C17.0286 16.8 17.0324 16.6088 16.9126 16.4886ZM7.58827 13.0832C4.30135 13.0832 1.62745 10.5086 1.62745 7.34369C1.62745 4.17879 4.30135 1.60416 7.58827 1.60416C10.8752 1.60416 13.5491 4.17879 13.5491 7.34369C13.5491 10.5086 10.8749 13.0832 7.58827 13.0832Z" fill="#2A87FF"/>
<path d="M16.9126 16.4886L17.2273 16.1748L17.2271 16.1745L16.9126 16.4886ZM12.2509 11.8205L11.9422 11.5008L11.617 11.8148L11.9364 12.1346L12.2509 11.8205ZM11.7872 12.2277L12.1017 11.9137L11.8207 11.6323L11.5099 11.8804L11.7872 12.2277ZM16.4602 16.9073L16.7756 16.5941L16.7747 16.5932L16.4602 16.9073ZM16.9038 16.9157L17.2053 17.2423L17.2059 17.2417L16.9038 16.9157ZM17.2271 16.1745L12.5654 11.5065L11.9364 12.1346L16.5981 16.8026L17.2271 16.1745ZM12.5596 12.1402C13.8295 10.914 14.621 9.21793 14.621 7.34369H13.7321C13.7321 8.96091 13.0503 10.4307 11.9422 11.5008L12.5596 12.1402ZM14.621 7.34369C14.621 3.58444 11.4507 0.555556 7.58827 0.555556V1.44444C10.9918 1.44444 13.7321 4.10676 13.7321 7.34369H14.621ZM7.58827 0.555556C3.72585 0.555556 0.555556 3.58444 0.555556 7.34369H1.44444C1.44444 4.10676 4.18477 1.44444 7.58827 1.44444V0.555556ZM0.555556 7.34369C0.555556 11.1029 3.72585 14.1318 7.58827 14.1318V13.2429C4.18477 13.2429 1.44444 10.5806 1.44444 7.34369H0.555556ZM7.58827 14.1318C9.28621 14.1318 10.847 13.5471 12.0645 12.5751L11.5099 11.8804C10.446 12.7299 9.0797 13.2429 7.58827 13.2429V14.1318ZM11.4727 12.5418L16.1457 17.2213L16.7747 16.5932L12.1017 11.9137L11.4727 12.5418ZM16.1448 17.2204C16.2957 17.3724 16.4942 17.4444 16.6864 17.4444V16.5556C16.7135 16.5556 16.7476 16.566 16.7755 16.5941L16.1448 17.2204ZM16.6864 17.4444C16.8705 17.4444 17.058 17.3783 17.2053 17.2423L16.6023 16.5892C16.6279 16.5656 16.6591 16.5556 16.6864 16.5556V17.4444ZM17.2059 17.2417C17.5152 16.9551 17.5252 16.4737 17.2273 16.1748L16.5978 16.8023C16.5396 16.744 16.5421 16.6449 16.6017 16.5897L17.2059 17.2417ZM7.58827 12.6388C4.53082 12.6388 2.0719 10.2474 2.0719 7.34369H1.18301C1.18301 10.7697 4.07189 13.5277 7.58827 13.5277V12.6388ZM2.0719 7.34369C2.0719 4.43995 4.53082 2.04861 7.58827 2.04861V1.15972C4.07189 1.15972 1.18301 3.91764 1.18301 7.34369H2.0719ZM7.58827 2.04861C10.6457 2.04861 13.1047 4.43995 13.1047 7.34369H13.9935C13.9935 3.91764 11.1047 1.15972 7.58827 1.15972V2.04861ZM13.1047 7.34369C13.1047 10.2474 10.6454 12.6388 7.58827 12.6388V13.5277C11.1043 13.5277 13.9935 10.7698 13.9935 7.34369H13.1047Z" fill="#2A87FF"/>
</svg>
